<svg width="18" height="17" viewBox="0 0 18 17" fill="none" xmlns="http://www.w3.org/2000/svg">
<path d="M2.53018 16.776H14.7425C16.1377 16.776 17.2727 15.6736 17.2727 14.3185V2.45742C17.2727 1.10238 16.1377 0 14.7425 0H2.53018C1.13502 0 0 1.10238 0 2.45742V14.3185C0 15.6736 1.13502 16.776 2.53018 16.776ZM1.01207 2.45742C1.01207 1.64442 1.69311 0.982966 2.53018 0.982966H14.7425C15.5796 0.982966 16.2606 1.64442 16.2606 2.45742V14.3185C16.2606 15.1315 15.5796 15.793 14.7425 15.793H2.53018C1.69311 15.793 1.01207 15.1315 1.01207 14.3185V2.45742Z" fill="white"/>
<path d="M8.55432 12.8467C11.0655 12.8467 13.1086 10.8623 13.1086 8.42335C13.1086 5.98436 11.0655 4 8.55432 4C6.04312 4 4 5.98436 4 8.42335C4 10.8623 6.04312 12.8467 8.55432 12.8467ZM8.55432 4.98297C10.5076 4.98297 12.0966 6.52628 12.0966 8.42335C12.0966 10.3204 10.5076 11.8637 8.55432 11.8637C6.60108 11.8637 5.01207 10.3204 5.01207 8.42335C5.01207 6.52628 6.60108 4.98297 8.55432 4.98297Z" fill="white"/>
<path d="M13.4092 4.70905C14.2363 4.70905 14.9092 4.05548 14.9092 3.25218C14.9092 2.44888 14.2363 1.79532 13.4092 1.79532C12.5821 1.79532 11.9092 2.44888 11.9092 3.25218C11.9092 4.05548 12.5821 4.70905 13.4092 4.70905ZM13.4092 2.76656C13.6848 2.76656 13.9092 2.98446 13.9092 3.25218C13.9092 3.51991 13.6848 3.7378 13.4092 3.7378C13.1335 3.7378 12.9092 3.51991 12.9092 3.25218C12.9092 2.98446 13.1335 2.76656 13.4092 2.76656Z" fill="white"/>
</svg>
